<svg id="Layer_1" data-name="Layer 1" xmlns="http://www.w3.org/2000/svg" viewBox="0 0 48.3545 38.835"><title>Untitled-8</title><path d="M451.5029,268.0762l0.2949,5.0957a6.7641,6.7641,0,0,1-.9053,3.9385,6.4176,6.4176,0,0,1-3.4336,2.001,6.3947,6.3947,0,0,1,3.4541,2.043,6.7658,6.7658,0,0,1,.9268,3.9385l-0.2949,4.9277a5.8153,5.8153,0,0,0,1.1162,3.8965q1.1162,1.2832,4.1494,1.4531l-0.085,2.2324q-4.1689-.17-5.918-1.8955-1.7476-1.7285-1.748-5.5176l0.2949-5.1816a4.28,4.28,0,0,0-1.0312-2.99,7.2174,7.2174,0,0,0-3.4336-1.8115v-2.1055a6.5,6.5,0,0,0,3.4336-1.6846,4.406,4.406,0,0,0,1.0313-3.0752l-0.2949-5.3916q0-3.832,1.77-5.5391,1.77-1.7051,5.9385-1.874l0.043,2.19q-3.0337.1685-4.17,1.4531A5.7355,5.7355,0,0,0,451.5029,268.0762Z" transform="translate(-444.8896 -258.7676)" style="fill:#20c6aa"/><path d="M477.9121,284.124q0,4.4648-2.2109,6.4648t-6.5078,2.001h-0.7158l-0.6318,4.8438a4.28,4.28,0,0,1-1.8955-.2949l0.59-4.6748-6.0234-.6318,0.2949-2.1484q3.2432,0.4219,6.0234.59l1.4736-11.2881a23.6857,23.6857,0,0,1-3.4746-.9062,8.9881,8.9881,0,0,1-2.4219-1.3262q-2.1064-1.5586-2.1064-5.4336,0-7.2876,8.8037-7.2871,0.7163,0,1.1367.042l0.6748-5.3066h1.8945L472.1,264.2012,477.28,264.79l-0.168,2.1484q-2.8652-.3369-5.3076-0.5479l-1.3477,10.5723a12.9894,12.9894,0,0,1,5.7285,2.3379Q477.9126,280.7964,477.9121,284.124ZM462.833,271.15q0,2.6543,1.2432,3.707a10.6168,10.6168,0,0,0,4.5273,1.7266l1.3486-10.3193h-0.6748Q462.8335,266.2646,462.833,271.15Zm6.2764,19.207q6.2754,0,6.2754-5.6016,0-2.7378-1.1582-3.749a9.4081,9.4081,0,0,0-4.0645-1.6426l-1.39,10.9932h0.3369Z" transform="translate(-444.8896 -258.7676)" style="fill:#20c6aa"/><path d="M486.5889,290.0205l-0.2949-4.9277a6.7583,6.7583,0,0,1,.9268-3.9385,6.3909,6.3909,0,0,1,3.4541-2.043,6.4137,6.4137,0,0,1-3.4336-2.001,6.7641,6.7641,0,0,1-.9053-3.9385l0.2949-5.0957a5.7355,5.7355,0,0,0-1.1377-3.8965q-1.1367-1.2847-4.17-1.4531l0.043-2.19q4.1689,0.1685,5.9385,1.874t1.77,5.5391l-0.2949,5.3916a4.4014,4.4014,0,0,0,1.0313,3.0752,6.5,6.5,0,0,0,3.4336,1.6846v2.1055a7.2174,7.2174,0,0,0-3.4336,1.8115,4.275,4.275,0,0,0-1.0312,2.99l0.2949,5.1816q0,3.79-1.748,5.5176-1.749,1.7256-5.918,1.8955l-0.085-2.2324q3.0337-.17,4.1494-1.4531A5.8206,5.8206,0,0,0,486.5889,290.0205Z" transform="translate(-444.8896 -258.7676)" style="fill:#20c6aa"/></svg>